<svg width="21" height="21" viewBox="0 0 21 21" fill="none" xmlns="http://www.w3.org/2000/svg">
<path fill-rule="evenodd" clip-rule="evenodd" d="M14.3212 0.75H17.4245C18.7084 0.75 19.75 1.8006 19.75 3.09667V6.2259C19.75 7.52099 18.7084 8.57257 17.4245 8.57257H14.3212C13.0363 8.57257 11.9948 7.52099 11.9948 6.2259V3.09667C11.9948 1.8006 13.0363 0.75 14.3212 0.75ZM3.07647 0.75H6.17877C7.46368 0.75 8.50524 1.8006 8.50524 3.09667V6.2259C8.50524 7.52099 7.46368 8.57257 6.17877 8.57257H3.07647C1.79156 8.57257 0.75 7.52099 0.75 6.2259V3.09667C0.75 1.8006 1.79156 0.75 3.07647 0.75ZM3.07647 11.9274H6.17877C7.46368 11.9274 8.50524 12.978 8.50524 14.2751V17.4033C8.50524 18.6994 7.46368 19.75 6.17877 19.75H3.07647C1.79156 19.75 0.75 18.6994 0.75 17.4033V14.2751C0.75 12.978 1.79156 11.9274 3.07647 11.9274ZM14.3212 11.9274H17.4245C18.7084 11.9274 19.75 12.978 19.75 14.2751V17.4033C19.75 18.6994 18.7084 19.75 17.4245 19.75H14.3212C13.0363 19.75 11.9948 18.6994 11.9948 17.4033V14.2751C11.9948 12.978 13.0363 11.9274 14.3212 11.9274Z" stroke="#F2F2F2" stroke-width="1.5" stroke-linecap="round" stroke-linejoin="round"/>
</svg>
